<svg width="16" height="16" viewBox="0 0 16 16" fill="none" xmlns="http://www.w3.org/2000/svg">
<g clip-path="url(#clip0_53_2)">
<rect width="16" height="16" rx="2" fill="url(#paint0_linear_53_2)"/>
<path d="M2.62407 13.855C2.45941 13.855 2.32074 13.7943 2.20807 13.673C2.09541 13.5603 2.03907 13.4217 2.03907 13.257V4.68999C2.03907 4.52532 2.09541 4.38665 2.20807 4.27399C2.32074 4.16132 2.45941 4.10499 2.62407 4.10499C2.79741 4.10499 2.94041 4.16132 3.05307 4.27399C3.16574 4.38665 3.22207 4.52532 3.22207 4.68999V5.02799C3.52541 4.71599 3.85907 4.47332 4.22307 4.29999C4.58707 4.12665 4.99441 4.03999 5.44507 4.03999C5.97374 4.03999 6.47641 4.17432 6.95307 4.44299C7.42974 4.71165 7.81974 5.10165 8.12307 5.61299C8.43507 6.12432 8.59107 6.74832 8.59107 7.48499C8.59107 8.22165 8.43507 8.84565 8.12307 9.35699C7.81974 9.86832 7.42974 10.2583 6.95307 10.527C6.47641 10.7957 5.97374 10.93 5.44507 10.93C4.99441 10.93 4.58707 10.8433 4.22307 10.67C3.85907 10.4967 3.52541 10.254 3.22207 9.94199V13.257C3.22207 13.4217 3.16574 13.5603 3.05307 13.673C2.94041 13.7943 2.79741 13.855 2.62407 13.855ZM5.27607 9.82499C5.89141 9.82499 6.39841 9.62565 6.79707 9.22699C7.20441 8.82832 7.40807 8.24765 7.40807 7.48499C7.40807 6.71365 7.20441 6.13299 6.79707 5.74299C6.39841 5.34432 5.89141 5.14499 5.27607 5.14499C4.85141 5.14499 4.46574 5.24032 4.11907 5.43099C3.77241 5.61299 3.47341 5.84265 3.22207 6.11999V8.84999C3.47341 9.12732 3.77241 9.36132 4.11907 9.55199C4.46574 9.73399 4.85141 9.82499 5.27607 9.82499ZM11.0744 10.865C10.9097 10.865 10.7624 10.8173 10.6324 10.722C10.511 10.6267 10.42 10.514 10.3594 10.384L8.09738 4.97599C8.05405 4.87199 8.03238 4.78099 8.03238 4.70299C8.03238 4.53832 8.08871 4.39965 8.20138 4.28699C8.31405 4.16565 8.45271 4.10499 8.61738 4.10499C8.73871 4.10499 8.84705 4.13965 8.94238 4.20899C9.04638 4.26965 9.11571 4.34765 9.15038 4.44299L11.1394 9.48699L13.1284 4.44299C13.1717 4.34765 13.241 4.26965 13.3364 4.20899C13.4404 4.13965 13.5487 4.10499 13.6614 4.10499C13.826 4.10499 13.9647 4.16565 14.0774 4.28699C14.19 4.39965 14.2464 4.53832 14.2464 4.70299C14.2464 4.78099 14.2247 4.87199 14.1814 4.97599L11.9194 10.384C11.8587 10.514 11.7634 10.6267 11.6334 10.722C11.512 10.8173 11.369 10.865 11.2044 10.865H11.0744Z" fill="#F9FAFB"/>
</g>
<defs>
<linearGradient id="paint0_linear_53_2" x1="16" y1="-1.5" x2="-2" y2="18.5" gradientUnits="userSpaceOnUse">
<stop stop-color="#626469"/>
<stop offset="1" stop-color="#363638"/>
</linearGradient>
<clipPath id="clip0_53_2">
<rect width="16" height="16" fill="white"/>
</clipPath>
</defs>
</svg>
