<?xml version="1.0" encoding="UTF-8" standalone="no"?>
<svg
   xmlns:dc="http://purl.org/dc/elements/1.1/"
   xmlns:cc="http://creativecommons.org/ns#"
   xmlns:rdf="http://www.w3.org/1999/02/22-rdf-syntax-ns#"
   xmlns:svg="http://www.w3.org/2000/svg"
   xmlns="http://www.w3.org/2000/svg"
   xmlns:sodipodi="http://sodipodi.sourceforge.net/DTD/sodipodi-0.dtd"
   xmlns:inkscape="http://www.inkscape.org/namespaces/inkscape"
   width="128"
   height="112"
   viewBox="0 0 33.86624 29.63296"
   version="1.1"
   id="svg8"
   inkscape:version="1.0.1 (3bc2e813f5, 2020-09-07)"
   sodipodi:docname="logo_traced.svg">
  <defs
     id="defs2" />
  <sodipodi:namedview
     id="base"
     pagecolor="#ffffff"
     bordercolor="#666666"
     borderopacity="1.0"
     inkscape:pageopacity="0.0"
     inkscape:pageshadow="2"
     inkscape:zoom="3.959798"
     inkscape:cx="46.929509"
     inkscape:cy="46.658956"
     inkscape:document-units="px"
     inkscape:current-layer="layer1"
     inkscape:document-rotation="0"
     showgrid="false"
     units="px"
     inkscape:window-width="1920"
     inkscape:window-height="1017"
     inkscape:window-x="-8"
     inkscape:window-y="-8"
     inkscape:window-maximized="1" />
  <metadata
     id="metadata5">
    <rdf:RDF>
      <cc:Work
         rdf:about="">
        <dc:format>image/svg+xml</dc:format>
        <dc:type
           rdf:resource="http://purl.org/dc/dcmitype/StillImage" />
        <dc:title></dc:title>
      </cc:Work>
    </rdf:RDF>
  </metadata>
  <g
     inkscape:label="Layer 1"
     inkscape:groupmode="layer"
     id="layer1">
    <path
       style="fill:#000000;stroke-width:0.0363155"
       d="m 27.573596,29.248876 c -0.150417,-0.08572 -0.753938,-0.440558 -1.341159,-0.788544 -1.270633,-0.752965 -1.722836,-0.981481 -2.718612,-1.373809 -0.70436,-0.277516 -0.753826,-0.303143 -0.8139,-0.421652 -0.05782,-0.114064 -0.06401,-0.271535 -0.06445,-1.640305 -6.43e-4,-1.684026 -0.0033,-1.709022 -0.245269,-2.179922 -0.171434,-0.333717 -0.55734,-0.728691 -0.87012,-0.890569 -0.428233,-0.22163 -0.534176,-0.235891 -1.792391,-0.241281 -1.234965,-0.0054 -1.262802,-0.0097 -1.261684,-0.198569 0.0013,-0.210125 -0.0626,-0.201293 1.598543,-0.221175 l 1.528696,-0.0183 0.347535,-0.119028 c 0.191144,-0.06547 0.463471,-0.190125 0.605171,-0.277023 0.630025,-0.386363 1.171004,-1.115791 1.350192,-1.820524 0.112664,-0.443105 0.155657,-0.496769 0.462387,-0.577162 0.415479,-0.108897 0.826153,-0.463477 1.031423,-0.890547 l 0.117615,-0.244698 0.01198,-1.460051 c 0.0086,-1.040174 -6.42e-4,-1.517073 -0.03184,-1.658331 -0.110031,-0.497771 -0.442113,-0.898991 -0.9524,-1.150684 -0.164069,-0.08092 -0.318228,-0.14714 -0.342573,-0.14714 -0.09247,0 -0.202702,-0.174488 -0.32694,-0.517557 -0.303769,-0.838819 -0.841055,-1.477398 -1.504321,-1.787917 -0.652214,-0.305345 -1.101904,-0.360589 -2.944889,-0.361773 -0.858291,-5.36e-4 -1.461841,-0.01553 -1.545179,-0.03833 -0.157244,-0.04303 -0.21078,-0.120106 -0.21078,-0.3034396 0,-0.216482 0.08521,-0.354165 0.342545,-0.553452 0.304165,-0.2355593 0.542258,-0.5321262 0.670585,-0.8352793 0.08812,-0.2081711 0.09956,-0.2819172 0.101007,-0.6510894 0.0017,-0.4115827 2.6e-5,-0.4195248 -0.13893,-0.6967196 -0.284793,-0.5681228 -0.877609,-1.0140295 -1.472995,-1.1079661 -0.67659,-0.1067485 -1.57157,0.3198685 -1.893368,0.9025241 -0.123939,0.2244058 -0.242777,0.6776387 -0.242777,0.9259245 0,0.5728029 0.274112,1.1051918 0.752166,1.4608788 0.23553,0.175243 0.345542,0.360189 0.344749,0.579569 -6.87e-4,0.1863066 -0.02467,0.2286016 -0.158043,0.2785736 -0.132913,0.04979 -1.659688,0.05216 -1.676617,0.0025 -0.01373,-0.04021 -1.776082,0.111119 -2.316888,0.198947 -0.906549,0.147226 -1.593126,0.781205 -1.9773039,1.825819 -0.089882,0.244398 -0.1936823,0.484916 -0.2306693,0.534486 -0.070895,0.09501 -0.080368,0.100574 -0.5241646,0.307676 -0.4647858,0.216898 -0.7479007,0.545042 -0.9009219,1.044224 -0.074132,0.24183 -0.1079928,2.669365 -0.042565,3.051622 0.1079126,0.630478 0.6294756,1.209629 1.1812086,1.311629 0.229714,0.04246 0.2967571,0.123965 0.3902999,0.474433 0.1709872,0.640631 0.4221202,1.101171 0.8101272,1.485663 0.24261,0.240413 0.64436,0.504053 0.954629,0.626458 0.472488,0.186398 0.679097,0.206254 2.146265,0.206254 0.790386,0 1.39172,0.01461 1.44655,0.03516 0.07535,0.02823 0.09384,0.05933 0.09384,0.157814 0,0.06746 -0.02458,0.14276 -0.05463,0.167331 -0.04037,0.03303 -0.352893,0.04683 -1.198075,0.05295 -1.25529,0.009 -1.353976,0.02229 -1.793039,0.239933 -0.323409,0.160315 -0.699843,0.547228 -0.8869,0.911587 l -0.146303,0.284974 -0.0183,1.601896 c -0.02121,1.857498 0.03099,1.659099 -0.480822,1.82763 -1.40833,0.463788 -2.8411218,1.178126 -4.3263557,2.157011 -0.9202258,0.606501 -0.9522298,0.604942 -1.7013564,-0.08281 -0.7092577,-0.651152 -0.8445427,-0.832814 -0.8445427,-1.134052 0,-0.09085 0.022559,-0.218383 0.050131,-0.283413 0.027577,-0.06501 0.3500813,-0.617598 0.7166798,-1.227959 0.3665983,-0.61036 0.6909197,-1.167241 0.7207129,-1.23751 0.090522,-0.213499 0.070097,-0.497658 -0.052344,-0.728274 C 5.0497672,23.556234 4.4047139,22.457673 4.3323351,22.380315 4.2887878,22.333779 4.1873096,22.260892 4.1068287,22.218352 3.9663354,22.144094 3.9013981,22.14012 2.4789086,22.118782 1.4930529,22.103991 0.95118624,22.082162 0.85944365,22.05355 0.51428721,21.945887 0.40980354,21.723381 0.1384748,20.518205 -0.0380723,19.734024 -0.04318393,19.53531 0.1081659,19.339765 c 0.0902895,-0.116656 0.64344812,-0.431971 2.088393,-1.190437 0.5922723,-0.310892 0.7294028,-0.411403 0.8403202,-0.615923 0.078797,-0.145292 0.082711,-0.194418 0.093949,-1.179053 0.00734,-0.64372 -0.00255,-1.074951 -0.026476,-1.154645 C 3.0833401,15.129747 3.0122171,15.021331 2.9462979,14.958783 2.8803839,14.896243 2.3161262,14.541786 1.6923946,14.171114 0.43045094,13.421166 0.3183088,13.344045 0.23343655,13.167791 0.12170921,12.935764 0.15538905,12.713692 0.4442041,11.778052 c 0.26791638,-0.867935 0.32613264,-0.998503 0.503342,-1.128884 0.1648845,-0.121316 0.3407583,-0.131905 1.4928811,-0.08989 1.7340519,0.06324 1.7387582,0.06309 1.9891691,-0.05808 C 4.6378238,10.400439 4.8101734,10.222057 4.904724,10.009438 4.9267674,9.9598704 5.0672332,9.7181394 5.2168684,9.4722574 5.5114989,8.9881393 5.5648995,8.8384194 5.5172301,8.6301308 5.5002074,8.5557551 5.16835,7.9474793 4.7797675,7.278407 4.0451575,6.0135346 3.9518582,5.8059808 4.0152897,5.5777586 4.0776883,5.3532547 4.1712299,5.2458262 4.9033164,4.557899 5.6853761,3.823013 5.7743175,3.767928 6.0574913,3.843071 6.2043517,3.882041 6.939371,4.2881013 7.9845741,4.9076833 8.67819,5.3188491 8.7725035,5.3589242 9.0465199,5.3589242 c 0.2071465,0 0.3419445,-0.0588 1.0049641,-0.4383811 0.191143,-0.1094315 0.4909,-0.2750556 0.666126,-0.3680548 0.391664,-0.2078754 0.522327,-0.3138023 0.620145,-0.502756 0.07265,-0.1403435 0.07611,-0.2072185 0.08215,-1.5907073 0.0069,-1.57312649 0.01202,-1.61703319 0.213502,-1.82094339 0.161326,-0.1632643 0.241807,-0.1920984 1.155567,-0.41399577 0.993974,-0.24137488 1.03457,-0.24812084 1.211217,-0.2012452 0.30682,0.0814161 0.326236,0.10885918 1.199239,1.69496656 0.311033,0.5650938 0.609301,1.0741651 0.66282,1.1312694 0.204504,0.218202 0.284887,0.2317663 1.450858,0.2448113 l 1.060894,0.011868 0.17656,-0.1022725 c 0.203893,-0.1181042 0.229358,-0.1548205 1.051883,-1.5166463 0.310252,-0.51367529 0.629945,-1.00282899 0.710426,-1.08700709 0.276385,-0.28908163 0.508339,-0.29190619 1.390134,-0.016929 0.301806,0.094113 0.67607,0.208141 0.831702,0.2533925 0.328798,0.095602 0.548989,0.258581 0.614786,0.45505179 0.0316,0.094336 0.03975,0.5527995 0.03008,1.6902741 l -0.01326,1.5608294 0.109747,0.1523477 c 0.08599,0.1193698 0.255898,0.2391442 0.784889,0.5533009 l 0.675142,0.4009521 h 0.257712 c 0.308452,0 0.214827,0.044036 1.642663,-0.772619 0.60076,-0.3436067 1.168612,-0.6473751 1.261893,-0.6750403 0.355372,-0.1053957 0.507676,-0.011446 1.363539,0.8410541 0.727524,0.7246657 0.791151,0.8176375 0.75274,1.0998643 -0.02081,0.1528475 -0.166623,0.4163119 -0.824398,1.4895274 -0.59885,0.9770743 -0.667024,1.1080927 -0.689604,1.325315 -0.02513,0.2417064 0.02632,0.4250555 0.194826,0.6942444 0.07422,0.11857 0.282547,0.475148 0.462947,0.7923936 0.41286,0.726033 0.433216,0.753798 0.640865,0.87409 l 0.171378,0.09928 1.445006,0.0187 c 1.280061,0.01656 1.461655,0.02601 1.590838,0.08283 0.32591,0.143344 0.417266,0.305392 0.589767,1.046164 0.07002,0.300679 0.15951,0.671062 0.198865,0.823074 0.133735,0.516559 0.08356,0.773979 -0.190553,0.977497 -0.16081,0.119398 -1.247673,0.715469 -1.816408,0.996176 -0.502193,0.247866 -0.750087,0.445783 -0.858207,0.685185 -0.06533,0.14465 -0.07298,0.257539 -0.08312,1.224189 -0.01213,1.159522 -0.0045,1.21507 0.195784,1.42241 0.05427,0.05618 0.608986,0.403258 1.232716,0.771292 0.623731,0.368034 1.1727,0.703307 1.219927,0.745049 0.148975,0.131674 0.235065,0.339828 0.216673,0.523878 -0.02096,0.209787 -0.483817,1.734172 -0.591898,1.949391 -0.103473,0.20605 -0.264554,0.313148 -0.517907,0.344343 -0.109976,0.01355 -0.767636,0.0073 -1.461464,-0.01372 -1.099626,-0.03342 -1.285533,-0.0313 -1.448716,0.01646 -0.252905,0.07401 -0.427061,0.247432 -0.665154,0.662334 -0.108093,0.188363 -0.281197,0.478443 -0.384672,0.64462 -0.330049,0.530042 -0.317904,0.669483 0.123764,1.421102 0.978332,1.664883 1.073804,1.838084 1.096922,1.990021 0.04452,0.292578 -0.01331,0.380085 -0.710711,1.075349 -0.354616,0.353532 -0.705833,0.673931 -0.780484,0.712002 -0.08391,0.0428 -0.209943,0.06922 -0.330129,0.06922 -0.162657,0 -0.239055,-0.02545 -0.467881,-0.155846 z m -14.19311,-9.940371 c -0.57422,-0.06834 -1.135125,-0.44881 -1.364187,-0.925363 l -0.117404,-0.244253 -0.02759,-1.532154 c -0.01518,-0.842686 -0.01451,-1.937725 0.0016,-2.433422 l 0.0291,-0.901266 0.123516,-0.227213 c 0.244086,-0.449009 0.68959,-0.741865 1.219153,-0.801422 0.165299,-0.01859 1.839749,-0.04369 3.721002,-0.05578 3.392068,-0.0218 3.422863,-0.02135 3.709968,0.05358 0.511307,0.133453 0.871909,0.413892 1.073366,0.834761 0.193286,0.403796 0.197762,0.455005 0.217673,2.490947 0.02317,2.369182 0.0056,2.538151 -0.31328,3.018778 -0.157755,0.237749 -0.462626,0.464748 -0.817722,0.608846 l -0.266632,0.108201 -3.457044,0.0192 c -1.975652,0.01098 -3.574612,0.0053 -3.73141,-0.01345 z m 4.082194,-0.555109 c 0.694006,-0.337252 1.125535,-1.195921 0.707958,-1.408717 -0.08529,-0.04347 -0.320717,-0.05298 -1.310962,-0.05298 h -1.206998 l -0.102641,0.08701 c -0.0866,0.07342 -0.101674,0.112245 -0.09644,0.248448 0.0092,0.241511 0.175387,0.551539 0.430876,0.804175 0.49686,0.491305 1.013133,0.596661 1.578211,0.322061 z"
       id="path847" />
  </g>
</svg>
