<svg width="40" height="15" viewBox="0 0 40 15" fill="none" xmlns="http://www.w3.org/2000/svg">
<g clip-path="url(#clip0_52_2)">
<path d="M0.984 13.76C0.781333 13.76 0.610667 13.6853 0.472 13.536C0.333333 13.3973 0.264 13.2267 0.264 13.024V2.48C0.264 2.27733 0.333333 2.10667 0.472 1.968C0.610667 1.82933 0.781333 1.76 0.984 1.76C1.19733 1.76 1.37333 1.82933 1.512 1.968C1.65067 2.10667 1.72 2.27733 1.72 2.48V2.896C2.09333 2.512 2.504 2.21333 2.952 2C3.4 1.78667 3.90133 1.68 4.456 1.68C5.10667 1.68 5.72533 1.84533 6.312 2.176C6.89867 2.50667 7.37867 2.98667 7.752 3.616C8.136 4.24533 8.328 5.01333 8.328 5.92C8.328 6.82667 8.136 7.59467 7.752 8.224C7.37867 8.85333 6.89867 9.33333 6.312 9.664C5.72533 9.99467 5.10667 10.16 4.456 10.16C3.90133 10.16 3.4 10.0533 2.952 9.84C2.504 9.62667 2.09333 9.328 1.72 8.944V13.024C1.72 13.2267 1.65067 13.3973 1.512 13.536C1.37333 13.6853 1.19733 13.76 0.984 13.76ZM4.248 8.8C5.00533 8.8 5.62933 8.55467 6.12 8.064C6.62133 7.57333 6.872 6.85867 6.872 5.92C6.872 4.97067 6.62133 4.256 6.12 3.776C5.62933 3.28533 5.00533 3.04 4.248 3.04C3.72533 3.04 3.25067 3.15733 2.824 3.392C2.39733 3.616 2.02933 3.89867 1.72 4.24V7.6C2.02933 7.94133 2.39733 8.22933 2.824 8.464C3.25067 8.688 3.72533 8.8 4.248 8.8ZM9.31775 10.08C9.11508 10.08 8.94442 10.0107 8.80575 9.872C8.66708 9.73333 8.59775 9.56267 8.59775 9.36V2.496C8.59775 2.29333 8.66708 2.12267 8.80575 1.984C8.94442 1.83467 9.11508 1.76 9.31775 1.76C9.52042 1.76 9.69108 1.83467 9.82975 1.984C9.97908 2.12267 10.0537 2.29333 10.0537 2.496V3.184C10.3417 2.8 10.6937 2.45333 11.1098 2.144C11.5257 1.83467 12.0111 1.68 12.5658 1.68H12.6458C12.8484 1.68 13.0137 1.74933 13.1417 1.888C13.2804 2.02667 13.3498 2.19733 13.3498 2.4C13.3498 2.60267 13.2804 2.768 13.1417 2.896C13.0031 3.024 12.8271 3.088 12.6137 3.088H12.5338C12.0111 3.088 11.5364 3.22133 11.1098 3.488C10.6831 3.744 10.3311 4.08 10.0537 4.496V9.36C10.0537 9.56267 9.97908 9.73333 9.82975 9.872C9.69108 10.0107 9.52042 10.08 9.31775 10.08ZM16.3284 10.16C15.507 10.16 14.787 9.984 14.1684 9.632C13.5497 9.26933 13.0697 8.77333 12.7284 8.144C12.3977 7.504 12.2324 6.76267 12.2324 5.92C12.2324 5.07733 12.3977 4.34133 12.7284 3.712C13.0697 3.072 13.5497 2.576 14.1684 2.224C14.787 1.86133 15.507 1.68 16.3284 1.68C17.1497 1.68 17.8644 1.86133 18.4724 2.224C19.091 2.576 19.571 3.072 19.9124 3.712C20.2537 4.34133 20.4244 5.07733 20.4244 5.92C20.4244 6.76267 20.2537 7.504 19.9124 8.144C19.571 8.77333 19.091 9.26933 18.4724 9.632C17.8644 9.984 17.1497 10.16 16.3284 10.16ZM16.3284 8.832C16.7337 8.832 17.139 8.736 17.5444 8.544C17.9497 8.352 18.2857 8.04267 18.5524 7.616C18.8297 7.17867 18.9684 6.608 18.9684 5.904C18.9684 5.2 18.8297 4.63467 18.5524 4.208C18.2857 3.78133 17.9497 3.47733 17.5444 3.296C17.139 3.104 16.7337 3.008 16.3284 3.008C15.923 3.008 15.5124 3.104 15.0964 3.296C14.691 3.47733 14.355 3.78133 14.0884 4.208C13.8217 4.63467 13.6884 5.2 13.6884 5.904C13.6884 6.608 13.8217 7.17867 14.0884 7.616C14.355 8.04267 14.691 8.352 15.0964 8.544C15.5124 8.736 15.923 8.832 16.3284 8.832ZM23.4562 10.16C23.2642 10.16 23.0349 10.1387 22.7682 10.096C22.5122 10.064 22.2562 9.984 22.0002 9.856C21.7549 9.71733 21.5469 9.504 21.3762 9.216C21.2056 8.928 21.1202 8.53867 21.1202 8.048V3.088H19.9842C19.7816 3.088 19.6802 2.98667 19.6802 2.784C19.6802 2.67733 19.7282 2.58667 19.8242 2.512L22.0002 0.384C22.0216 0.362666 22.0536 0.335999 22.0962 0.304C22.1496 0.261333 22.2082 0.24 22.2722 0.24C22.3576 0.24 22.4269 0.272 22.4802 0.335999C22.5442 0.399999 22.5762 0.474666 22.5762 0.559999V1.84H24.3842C24.5656 1.84 24.7149 1.89867 24.8322 2.016C24.9496 2.13333 25.0082 2.28267 25.0082 2.464C25.0082 2.63467 24.9496 2.784 24.8322 2.912C24.7149 3.02933 24.5656 3.088 24.3842 3.088H22.5762V7.92C22.5762 8.22933 22.6349 8.45333 22.7522 8.592C22.8696 8.73067 23.0082 8.816 23.1682 8.848C23.3389 8.86933 23.4882 8.88 23.6162 8.88C23.8722 8.88 24.0589 8.85867 24.1762 8.816C24.3042 8.76267 24.4376 8.736 24.5762 8.736C24.7256 8.736 24.8589 8.78933 24.9762 8.896C25.0936 9.00267 25.1522 9.14133 25.1522 9.312C25.1522 9.55733 25.0296 9.744 24.7842 9.872C24.5922 9.95733 24.3842 10.0267 24.1602 10.08C23.9469 10.1333 23.7122 10.16 23.4562 10.16ZM28.4802 10.16C27.6589 10.16 26.9389 9.984 26.3202 9.632C25.7016 9.26933 25.2216 8.77333 24.8802 8.144C24.5496 7.504 24.3842 6.76267 24.3842 5.92C24.3842 5.07733 24.5496 4.34133 24.8802 3.712C25.2216 3.072 25.7016 2.576 26.3202 2.224C26.9389 1.86133 27.6589 1.68 28.4802 1.68C29.3016 1.68 30.0162 1.86133 30.6242 2.224C31.2429 2.576 31.7229 3.072 32.0642 3.712C32.4056 4.34133 32.5762 5.07733 32.5762 5.92C32.5762 6.76267 32.4056 7.504 32.0642 8.144C31.7229 8.77333 31.2429 9.26933 30.6242 9.632C30.0162 9.984 29.3016 10.16 28.4802 10.16ZM28.4802 8.832C28.8856 8.832 29.2909 8.736 29.6962 8.544C30.1016 8.352 30.4376 8.04267 30.7042 7.616C30.9816 7.17867 31.1202 6.608 31.1202 5.904C31.1202 5.2 30.9816 4.63467 30.7042 4.208C30.4376 3.78133 30.1016 3.47733 29.6962 3.296C29.2909 3.104 28.8856 3.008 28.4802 3.008C28.0749 3.008 27.6642 3.104 27.2482 3.296C26.8429 3.47733 26.5069 3.78133 26.2402 4.208C25.9736 4.63467 25.8402 5.2 25.8402 5.904C25.8402 6.608 25.9736 7.17867 26.2402 7.616C26.5069 8.04267 26.8429 8.352 27.2482 8.544C27.6642 8.736 28.0749 8.832 28.4802 8.832ZM35.6413 10.08C35.4386 10.08 35.2573 10.0213 35.0973 9.904C34.9479 9.78667 34.8359 9.648 34.7613 9.488L31.9773 2.832C31.9239 2.704 31.8973 2.592 31.8973 2.496C31.8973 2.29333 31.9666 2.12267 32.1053 1.984C32.2439 1.83467 32.4146 1.76 32.6173 1.76C32.7666 1.76 32.8999 1.80267 33.0173 1.888C33.1453 1.96267 33.2306 2.05867 33.2733 2.176L35.7213 8.384L38.1693 2.176C38.2226 2.05867 38.3079 1.96267 38.4253 1.888C38.5533 1.80267 38.6866 1.76 38.8253 1.76C39.0279 1.76 39.1986 1.83467 39.3373 1.984C39.4759 2.12267 39.5453 2.29333 39.5453 2.496C39.5453 2.592 39.5186 2.704 39.4653 2.832L36.6813 9.488C36.6066 9.648 36.4893 9.78667 36.3293 9.904C36.1799 10.0213 36.0039 10.08 35.8013 10.08H35.6413Z" fill="white"/>
</g>
<defs>
<clipPath id="clip0_52_2">
<rect width="40" height="15" fill="white"/>
</clipPath>
</defs>
</svg>
